<?xml version="1.0" encoding="utf-8"?>
<svg version="1.1" xmlns="http://www.w3.org/2000/svg" xmlns:xlink="http://www.w3.org/1999/xlink" x="0px" y="0px" viewBox="0 0 900 900" style="enable-background:new 0 0 900 900;" xml:space="preserve">
<style type="text/css">
	.st6{fill:#8CD3D8;}
</style>
<g id="person">
	<g>
		<path class="st6" d="M450,46c54.6,0,107.5,10.7,157.2,31.7c48.1,20.3,91.3,49.5,128.4,86.6c37.1,37.1,66.2,80.3,86.6,128.4
			C843.3,342.5,854,395.4,854,450s-10.7,107.5-31.7,157.2c-20.3,48.1-49.5,91.3-86.6,128.4c-37.1,37.1-80.3,66.2-128.4,86.6
			C557.5,843.3,504.6,854,450,854s-107.5-10.7-157.2-31.7c-48.1-20.3-91.3-49.5-128.4-86.6c-37.1-37.1-66.2-80.3-86.6-128.4
			C56.7,557.5,46,504.6,46,450s10.7-107.5,31.7-157.2c20.3-48.1,49.5-91.3,86.6-128.4s80.3-66.2,128.4-86.6
			C342.5,56.7,395.4,46,450,46 M450,21C213.1,21,21,213.1,21,450s192.1,429,429,429s429-192.1,429-429S686.9,21,450,21L450,21z"/>
	</g>
	<circle class="st6" cx="454.2" cy="412.9" r="183.3"/>
	<path class="st6" d="M444.6,584.2c-130.2,0-240.4,78-277.8,185.7c75.4,65.9,174,105.9,282,105.9c104.9,0,201-37.7,275.5-100.3
		C688.8,665,577.1,584.2,444.6,584.2z"/>
</g>
</svg>
