<?xml version="1.0" encoding="utf-8"?>
<svg version="1.1" xmlns="http://www.w3.org/2000/svg" xmlns:xlink="http://www.w3.org/1999/xlink" x="0px" y="0px" viewBox="0 0 900 900" style="enable-background:new 0 0 900 900;" xml:space="preserve">
<style type="text/css">
	.st5{fill:#FFFFFF;}
	.st6{fill:#8CD3D8;}
</style>
<g id="place">
	<ellipse class="st6" cx="450" cy="798.8" rx="352" ry="83.6"/>
	<g>
		<path class="st5" d="M461,767.7C417,696.8,251.4,421,250.7,282.8C250.6,180.2,276.5,108,327.8,68c33.2-25.9,76.8-38.5,133.4-38.5
			c35.7,0,88.1,3.9,130.1,37.3c49.2,39.1,74.1,111,74.1,213.5C665.5,422.4,504.1,696.9,461,767.7z"/>
		<path class="st6" d="M461.3,42c33.9,0,83.4,3.6,122.3,34.6c46.1,36.7,69.4,105.2,69.4,203.7c0,65-36.5,171.2-105.5,307.1
			c-32.8,64.6-65.9,121.8-86.5,156.3c-21.1-34.6-55.2-92.2-89-157c-70.8-135.7-108.4-240.9-108.8-304
			c-0.1-98.5,24.3-167.4,72.3-204.9c17.6-13.7,38.9-23.6,63.4-29.4C417.3,44.1,437.7,42,461.3,42 M461.3,17
			C382.5,17,238,38,238.2,282.8c0.8,164.2,223,508.5,223,508.5S678,449,678,280.3C678,36,540,17,461.3,17L461.3,17z"/>
	</g>
	<circle class="st6" cx="457.3" cy="270.3" r="88.3"/>
</g>
</svg>
