<?xml version="1.0" encoding="utf-8"?>
<svg version="1.1" xmlns="http://www.w3.org/2000/svg" xmlns:xlink="http://www.w3.org/1999/xlink" x="0px" y="0px" viewBox="0 0 900 900" xml:space="preserve">
<style type="text/css">
	.st5{fill:#FFFFFF;}
	.st6{fill:#8CD3D8;}
</style>
<g id="resource">
	<g>
		<path class="st5" d="M173.6,865.6c-16.5,0-30-13.4-30-30V71.5c0-16.5,13.4-30,30-30h297.2c20.2,0,49.4,12.1,63.6,26.4l194.7,194.7c14.3,14.3,26.4,43.4,26.4,63.6v509.5c0,16.5-13.4,30-30,30H173.6z"/>
		<path class="st6" d="M470.8,54c16.8,0,42.9,10.8,54.8,22.7l194.7,194.7c11.9,11.9,22.7,38,22.7,54.8v509.5c0,9.6-7.8,17.5-17.5,17.5H173.6c-9.6,0-17.5-7.8-17.5-17.5V71.5c0-9.6,7.8-17.5,17.5-17.5H470.8 M470.8,29H173.6c-23.4,0-42.5,19-42.5,42.5v764.2c0,23.4,19,42.5,42.5,42.5h551.9c23.4,0,42.5-19,42.5-42.5V326.2c0-23.4-13.4-55.9-30-72.5L543.3,59C526.7,42.4,494.3,29,470.8,29L470.8,29z"/>
	</g>
	<path class="st6" d="M513.3,71.5v169.8c0,23.4,19,42.5,42.5,42.5h169.8c23.4,0,29-13.4,12.4-30L543.3,59C526.7,42.4,513.3,48,513.3,71.5z"/>
</g>
</svg>
