<?xml version="1.0" encoding="utf-8"?>
<svg version="1.1" xmlns="http://www.w3.org/2000/svg" xmlns:xlink="http://www.w3.org/1999/xlink" x="0px" y="0px" viewBox="0 0 900 900" style="enable-background:new 0 0 900 900;" xml:space="preserve">
<style type="text/css">
	.st5{fill:#FFFFFF;}
	.st6{fill:#8CD3D8;}
</style>
<g id="metadata">
	<g>
		<path class="st5" d="M173.6,865.6c-16.5,0-30-13.4-30-30V71.5c0-16.5,13.4-30,30-30h297.2c20.2,0,49.4,12.1,63.6,26.4l194.7,194.7
			c14.3,14.3,26.4,43.4,26.4,63.6v509.5c0,16.5-13.4,30-30,30H173.6z"/>
		<path class="st6" d="M470.8,54c16.8,0,42.9,10.8,54.8,22.7l194.7,194.7c11.9,11.9,22.7,38,22.7,54.8v509.5
			c0,9.6-7.8,17.5-17.5,17.5H173.6c-9.6,0-17.5-7.8-17.5-17.5V71.5c0-9.6,7.8-17.5,17.5-17.5H470.8 M470.8,29H173.6
			c-23.4,0-42.5,19-42.5,42.5v764.2c0,23.4,19,42.5,42.5,42.5h551.9c23.4,0,42.5-19,42.5-42.5V326.2c0-23.4-13.4-55.9-30-72.5
			L543.3,59C526.7,42.4,494.3,29,470.8,29L470.8,29z"/>
	</g>
	<path class="st6" d="M513.3,71.5v169.8c0,23.4,19,42.5,42.5,42.5h169.8c23.4,0,29-13.4,12.4-30L543.3,59
		C526.7,42.4,513.3,48,513.3,71.5z"/>
	<path class="st6" d="M251.8,484.7l94.2,44.7c5.3,2.5,9,5,11.1,7.5c2.1,2.5,3.2,5.4,3.2,8.9c0,4.1-1.3,7.3-3.8,9.8
		c-2.5,2.5-5.8,3.8-10,3.8c-1.7,0-3.6-0.3-5.7-0.9c-2.1-0.6-4.6-1.5-7.6-2.9l-114-52.5c-0.6-0.3-1.5-0.7-2.7-1.2
		c-10.2-4.7-15.3-10.3-15.3-16.6c0-6.5,5.4-12.2,16.1-17.1l1.2-0.7l114.9-53.5c3.9-1.7,6.7-2.9,8.5-3.4c1.8-0.5,3.4-0.8,4.8-0.8
		c4.1,0,7.5,1.3,10,3.8c2.5,2.5,3.8,5.8,3.8,9.8c0,3.5-1.1,6.5-3.3,9c-2.2,2.6-5.9,5.1-11.1,7.6L251.8,484.7z"/>
	<path class="st6" d="M503.2,396.1l-84.8,181.6c-2.6,5.7-5,9.6-7.2,11.9c-2.2,2.2-4.8,3.3-7.8,3.3c-4.4,0-8.4-1.4-11.8-4.2
		c-3.4-2.8-5.1-6.3-5.1-10.4c0-2.8,1.3-7.1,3.9-13l0.3-0.6l84.7-181.3c2.7-5.9,5.2-9.9,7.4-12.2c2.2-2.2,4.8-3.3,7.8-3.3
		c4.3,0,8.2,1.4,11.7,4.2s5.2,6.3,5.2,10.4c0,1.7-0.3,3.6-0.9,5.5C506,389.9,504.9,392.6,503.2,396.1z"/>
	<path class="st6" d="M646.9,484.7l-94.4-44.7c-5.1-2.5-8.8-5-10.9-7.6c-2.2-2.6-3.3-5.6-3.3-9c0-4.1,1.2-7.3,3.6-9.8
		c2.4-2.5,5.6-3.8,9.7-3.8c1.5,0,3.3,0.3,5.3,0.9c2,0.6,4.8,1.7,8.5,3.3L680,467.4l1.2,0.7c10.7,4.9,16.1,10.6,16.1,17.1
		s-5.2,12-15.5,16.6c-1,0.6-1.7,1-2.3,1.2L565,555.6c-2.9,1.4-5.4,2.3-7.5,2.9c-2.1,0.6-4,0.9-5.9,0.9c-4.1,0-7.3-1.2-9.7-3.7
		c-2.4-2.5-3.6-5.8-3.6-9.9c0-3.5,1-6.4,3.1-8.9c2.1-2.5,5.8-4.9,11.1-7.5L646.9,484.7z"/>
</g>
</svg>
